<svg width="400" height="250" viewBox="0 0 400 250" fill="none" xmlns="http://www.w3.org/2000/svg">
  <rect width="400" height="250" rx="8" fill="url(#gradient3)"/>
  <rect x="20" y="20" width="360" height="40" rx="4" fill="rgba(255,255,255,0.1)"/>
  <circle cx="40" cy="40" r="8" fill="#f472b6"/>
  <rect x="60" y="34" width="120" height="12" rx="2" fill="rgba(255,255,255,0.6)"/>
  <rect x="20" y="80" width="360" height="120" rx="8" fill="rgba(255,255,255,0.05)"/>
  <rect x="40" y="100" width="80" height="60" rx="4" fill="rgba(244, 114, 182, 0.2)"/>
  <rect x="140" y="100" width="80" height="60" rx="4" fill="rgba(244, 114, 182, 0.2)"/>
  <rect x="240" y="100" width="80" height="60" rx="4" fill="rgba(244, 114, 182, 0.2)"/>
  <rect x="50" y="110" width="20" height="20" rx="2" fill="#f472b6"/>
  <rect x="150" y="110" width="20" height="20" rx="2" fill="#f472b6"/>
  <rect x="250" y="110" width="20" height="20" rx="2" fill="#f472b6"/>
  <rect x="50" y="140" width="40" height="8" rx="2" fill="rgba(255,255,255,0.4)"/>
  <rect x="150" y="140" width="40" height="8" rx="2" fill="rgba(255,255,255,0.4)"/>
  <rect x="250" y="140" width="40" height="8" rx="2" fill="rgba(255,255,255,0.4)"/>
  <text x="200" y="220" text-anchor="middle" fill="rgba(255,255,255,0.8)" font-family="Arial" font-size="12">SP Hardwares</text>
  <defs>
    <linearGradient id="gradient3" x1="0" y1="0" x2="1" y2="1">
      <stop offset="0%" stop-color="#1a1a1a"/>
      <stop offset="100%" stop-color="#0c0c0c"/>
    </linearGradient>
  </defs>
</svg>