<svg width="400" height="250" viewBox="0 0 400 250" fill="none" xmlns="http://www.w3.org/2000/svg">
  <rect width="400" height="250" rx="8" fill="url(#gradient2)"/>
  <rect x="20" y="20" width="360" height="40" rx="4" fill="rgba(255,255,255,0.1)"/>
  <circle cx="40" cy="40" r="8" fill="#22d3ee"/>
  <rect x="60" y="34" width="120" height="12" rx="2" fill="rgba(255,255,255,0.6)"/>
  <rect x="20" y="80" width="110" height="80" rx="4" fill="rgba(255,255,255,0.05)"/>
  <rect x="140" y="80" width="110" height="80" rx="4" fill="rgba(255,255,255,0.05)"/>
  <rect x="260" y="80" width="110" height="80" rx="4" fill="rgba(255,255,255,0.05)"/>
  <circle cx="75" cy="110" r="15" fill="#22d3ee"/>
  <circle cx="195" cy="110" r="15" fill="#22d3ee"/>
  <circle cx="315" cy="110" r="15" fill="#22d3ee"/>
  <rect x="50" y="130" width="50" height="8" rx="2" fill="rgba(255,255,255,0.4)"/>
  <rect x="170" y="130" width="50" height="8" rx="2" fill="rgba(255,255,255,0.4)"/>
  <rect x="290" y="130" width="50" height="8" rx="2" fill="rgba(255,255,255,0.4)"/>
  <rect x="20" y="180" width="360" height="50" rx="4" fill="rgba(255,255,255,0.1)"/>
  <text x="200" y="210" text-anchor="middle" fill="rgba(255,255,255,0.8)" font-family="Arial" font-size="12">SP Warehouse E-commerce</text>
  <defs>
    <linearGradient id="gradient2" x1="0" y1="0" x2="1" y2="1">
      <stop offset="0%" stop-color="#1a1a1a"/>
      <stop offset="100%" stop-color="#0c0c0c"/>
    </linearGradient>
  </defs>
</svg>