<svg width="400" height="250" viewBox="0 0 400 250" fill="none" xmlns="http://www.w3.org/2000/svg">
  <rect width="400" height="250" rx="8" fill="url(#gradient4)"/>
  <rect x="20" y="40" width="150" height="170" rx="8" fill="rgba(255,255,255,0.1)"/>
  <rect x="30" y="60" width="130" height="20" rx="4" fill="#10b981"/>
  <rect x="30" y="90" width="130" height="80" rx="4" fill="rgba(255,255,255,0.05)"/>
  <circle cx="60" cy="110" r="8" fill="#10b981"/>
  <circle cx="100" cy="110" r="8" fill="#10b981"/>
  <circle cx="140" cy="110" r="8" fill="#10b981"/>
  <circle cx="60" cy="140" r="8" fill="#10b981"/>
  <circle cx="100" cy="140" r="8" fill="#10b981"/>
  <circle cx="140" cy="140" r="8" fill="#10b981"/>
  <rect x="30" y="180" width="130" height="20" rx="4" fill="rgba(16, 185, 129, 0.3)"/>
  <rect x="190" y="40" width="190" height="170" rx="8" fill="rgba(255,255,255,0.05)"/>
  <rect x="210" y="60" width="150" height="30" rx="4" fill="#10b981"/>
  <rect x="210" y="100" width="150" height="100" rx="4" fill="rgba(255,255,255,0.1)"/>
  <rect x="220" y="110" width="130" height="10" rx="2" fill="rgba(255,255,255,0.4)"/>
  <rect x="220" y="130" width="100" height="10" rx="2" fill="rgba(255,255,255,0.3)"/>
  <rect x="220" y="150" width="80" height="10" rx="2" fill="rgba(255,255,255,0.3)"/>
  <rect x="220" y="170" width="60" height="10" rx="2" fill="#10b981"/>
  <text x="200" y="230" text-anchor="middle" fill="rgba(255,255,255,0.8)" font-family="Arial" font-size="12">Weekend POS System</text>
  <defs>
    <linearGradient id="gradient4" x1="0" y1="0" x2="1" y2="1">
      <stop offset="0%" stop-color="#1a1a1a"/>
      <stop offset="100%" stop-color="#0c0c0c"/>
    </linearGradient>
  </defs>
</svg>